<?xml version="1.0" encoding="UTF-8" standalone="no"?>
<svg
   xmlns:dc="http://purl.org/dc/elements/1.1/"
   xmlns:cc="http://creativecommons.org/ns#"
   xmlns:rdf="http://www.w3.org/1999/02/22-rdf-syntax-ns#"
   xmlns:svg="http://www.w3.org/2000/svg"
   xmlns="http://www.w3.org/2000/svg"
   xmlns:sodipodi="http://sodipodi.sourceforge.net/DTD/sodipodi-0.dtd"
   xmlns:inkscape="http://www.inkscape.org/namespaces/inkscape"
   inkscape:version="1.0 (4035a4fb49, 2020-05-01)"
   sodipodi:docname="NAC_Group.svg"
   viewBox="0 0 187.31233 187.46068"
   height="187.46068"
   width="187.31233"
   id="svg64"
   version="1.1">
  <metadata
     id="metadata70">
    <rdf:RDF>
      <cc:Work
         rdf:about="">
        <dc:format>image/svg+xml</dc:format>
        <dc:type
           rdf:resource="http://purl.org/dc/dcmitype/StillImage" />
        <dc:title></dc:title>
      </cc:Work>
    </rdf:RDF>
  </metadata>
  <defs
     id="defs68" />
  <sodipodi:namedview
     inkscape:document-rotation="0"
     inkscape:current-layer="layer2"
     inkscape:window-maximized="1"
     inkscape:window-y="27"
     inkscape:window-x="0"
     inkscape:cy="14.727998"
     inkscape:cx="-10.336515"
     inkscape:zoom="2"
     showgrid="false"
     id="namedview66"
     inkscape:window-height="1016"
     inkscape:window-width="1920"
     inkscape:pageshadow="2"
     inkscape:pageopacity="0"
     guidetolerance="10"
     gridtolerance="10"
     objecttolerance="10"
     borderopacity="1"
     bordercolor="#666666"
     pagecolor="#ffffff" />
  <g
     transform="translate(-82.436235,-34.840655)"
     style="display:inline"
     inkscape:label="Layer 1"
     id="layer2"
     inkscape:groupmode="layer">
    <path
       inkscape:connector-curvature="0"
       id="path16"
       d="m 168.47495,221.99685 c -26.36425,-2.15772 -50.73397,-15.41298 -66.7573,-36.31086 -1.04238,-1.35949 -1.838765,-2.52828 -1.769745,-2.59729 0.069,-0.069 2.699835,0.16212 5.846255,0.51364 12.38759,1.38395 14.40834,1.46596 36.12079,1.46596 25.47678,0 31.58875,-0.39488 59.23035,-3.82675 4.9113,-0.60977 10.94564,-1.27686 13.40964,-1.48242 5.56605,-0.46436 18.15334,-0.20123 24.26538,0.50726 4.47795,0.51906 13.62086,1.94149 13.83118,2.15181 0.20974,0.20974 -3.93404,5.49846 -6.95405,8.87546 -19.24491,21.51986 -48.29647,33.07058 -77.2225,30.70319 z"
       style="fill:#4b4e53;fill-opacity:1;stroke-width:0.31999999" />
    <path
       inkscape:connector-curvature="0"
       id="path14"
       d="m 143.99495,174.98818 c -13.01435,-0.59267 -27.57222,-2.5526 -45.264935,-6.09401 -4.39172,-0.87906 -8.09888,-1.77549 -8.23812,-1.99207 -0.73521,-1.14359 -3.57943,-8.96978 -4.67864,-12.8738 -1.58702,-5.63652 -1.86634,-7.1999 -1.28642,-7.20027 0.23547,-1.4e-4 1.94013,-0.13948 3.78813,-0.30963 9.29538,-0.85587 31.436155,-2.25433 45.599985,-2.88019 13.17745,-0.58227 37.60864,-1.04191 44.15999,-0.83081 19.61445,0.63205 36.33998,3.15299 59.68,8.99522 7.55808,1.89186 26.5727,7.10576 26.83499,7.35829 0.25719,0.24761 -4.05122,10.63966 -4.78204,11.53448 -0.18958,0.23211 -0.8945,0.26251 -2.12821,0.0918 -5.39374,-0.74648 -15.07568,-1.26581 -23.57752,-1.26466 -14.16359,0.002 -25.38391,0.68576 -42.42722,2.58585 -23.46002,2.61548 -36.3668,3.39504 -47.67999,2.87983 z"
       style="fill:#a95521;fill-opacity:1;stroke-width:0.31999999" />
    <path
       inkscape:connector-curvature="0"
       id="path12"
       d="m 264.95494,148.9129 c -4.89833,-1.14058 -31.51126,-6.38296 -38.08,-7.50123 -33.55818,-5.71298 -64.23771,-6.6669 -134.208245,-4.17295 -5.99112,0.21354 -9.68105,0.22826 -9.86994,0.0394 -0.35171,-0.35172 -0.51409,-13.63856 -0.17091,-13.98509 0.12698,-0.12822 4.08698,-0.34838 8.8,-0.48924 15.155635,-0.45298 18.915955,-0.74292 41.209105,-3.17739 34.52974,-3.77073 50.571,-4.99048 70.07999,-5.32877 19.1103,-0.33137 33.1718,0.86506 57.64337,4.9046 l 9.00336,1.48619 0.19664,1.43462 c 0.30756,2.24395 0.22881,10.4067 -0.13957,14.46528 -0.60665,6.68368 -1.72671,12.82021 -2.33031,12.76721 -0.20542,-0.018 -1.16549,-0.21721 -2.13349,-0.44261 z"
       style="fill:#d68230;fill-opacity:1;stroke-width:0.31999999" />
    <path
       inkscape:connector-curvature="0"
       id="path10"
       d="m 83.194965,115.50831 c 0,-1.82191 2.26007,-11.89325 3.44928,-15.37068 l 0.59185,-1.730671 5.89944,-1.571993 c 11.307075,-3.012937 18.665505,-5.694572 37.099415,-13.520157 37.36742,-15.863264 44.55468,-18.586829 56.95999,-21.584608 16.35194,-3.951495 31.26592,-5.293341 46.24,-4.160327 l 4.48,0.338983 2.4,2.299718 c 11.14478,10.679104 19.505,23.512865 24.21978,37.179724 1.15944,3.360891 2.65386,8.593031 2.49869,8.748191 -0.0751,0.0751 -2.26552,-0.0406 -4.86753,-0.25721 -7.04716,-0.58661 -31.07201,-0.79769 -40.20027,-0.3532 -16.8281,0.81944 -30.32928,1.87164 -70.13066,5.46559 -39.61283,3.57693 -50.10334,4.3932 -63.759985,4.9612 -4.75242,0.19765 -4.88,0.18603 -4.88,-0.44456 z"
       style="fill:#4b9461;fill-opacity:1;stroke-width:0.31999999" />
    <path
       inkscape:connector-curvature="0"
       id="path4154"
       d="m 96.314965,79.127091 c 0,-0.115613 0.95542,-1.598138 2.12315,-3.294503 15.768145,-22.906336 39.729375,-37.365991 67.154865,-40.525303 4.79767,-0.552675 14.90053,-0.629367 19.72806,-0.149763 7.58722,0.753779 16.1128,2.709021 23.21177,5.323357 4.63043,1.705244 12.74457,5.662313 16.74213,8.164733 l 2.72,1.702681 -8.8,0.206768 c -15.62515,0.36714 -30.69295,2.419687 -46.76244,6.37002 -8.24462,2.026761 -13.06411,3.488944 -30.51755,9.258701 -18.28717,6.045373 -27.78371,8.918685 -36.96,11.182778 -7.034615,1.73567 -8.639985,2.06279 -8.639985,1.760531 z"
       style="fill:#545386;fill-opacity:1;stroke-width:0.31999999" />
  </g>
</svg>
