<?xml version="1.0" encoding="UTF-8" standalone="no"?>
<svg
   inkscape:version="1.1.2 (0a00cf5339, 2022-02-04)"
   sodipodi:docname="logo.svg"
   viewBox="0 0 187.31233 187.46068"
   height="187.46068"
   width="187.31233"
   id="svg64"
   version="1.1"
   xmlns:inkscape="http://www.inkscape.org/namespaces/inkscape"
   xmlns:sodipodi="http://sodipodi.sourceforge.net/DTD/sodipodi-0.dtd"
   xmlns="http://www.w3.org/2000/svg"
   xmlns:svg="http://www.w3.org/2000/svg"
   xmlns:rdf="http://www.w3.org/1999/02/22-rdf-syntax-ns#"
   xmlns:cc="http://creativecommons.org/ns#"
   xmlns:dc="http://purl.org/dc/elements/1.1/">
  <metadata
     id="metadata70">
    <rdf:RDF>
      <cc:Work
         rdf:about="">
        <dc:format>image/svg+xml</dc:format>
        <dc:type
           rdf:resource="http://purl.org/dc/dcmitype/StillImage" />
      </cc:Work>
    </rdf:RDF>
  </metadata>
  <defs
     id="defs68" />
  <sodipodi:namedview
     inkscape:document-rotation="0"
     inkscape:current-layer="layer2"
     inkscape:window-maximized="1"
     inkscape:window-y="0"
     inkscape:window-x="0"
     inkscape:cy="117"
     inkscape:cx="56.75"
     inkscape:zoom="2"
     showgrid="false"
     id="namedview66"
     inkscape:window-height="1011"
     inkscape:window-width="1920"
     inkscape:pageshadow="2"
     inkscape:pageopacity="0"
     guidetolerance="10"
     gridtolerance="10"
     objecttolerance="10"
     borderopacity="1"
     bordercolor="#666666"
     pagecolor="#ffffff"
     inkscape:pagecheckerboard="0" />
  <g
     transform="translate(-82.436235,-34.840655)"
     style="display:inline"
     inkscape:label="Layer 1"
     id="layer2"
     inkscape:groupmode="layer">
    <g
       id="g17"
       transform="matrix(1.221097,0,0,1.221097,-37.47373,-29.020511)">
      <path
         inkscape:connector-curvature="0"
         id="path16"
         d="m 169.06965,200.52738 c -20.16845,-1.65063 -38.81109,-11.7908 -51.06882,-27.77752 -0.79741,-1.04 -1.40664,-1.93412 -1.35384,-1.98691 0.0527,-0.0528 2.06535,0.12402 4.47234,0.39293 9.47642,1.05871 11.02227,1.12145 27.63213,1.12145 19.48954,0 24.16515,-0.30208 45.31076,-2.92743 3.75711,-0.46648 8.37334,-0.97679 10.25828,-1.13404 4.25798,-0.35524 13.88716,-0.15395 18.56283,0.38804 3.42559,0.39708 10.41985,1.48523 10.58075,1.64613 0.16044,0.16044 -3.00951,4.20627 -5.3198,6.78965 -14.72221,16.46253 -36.94643,25.29875 -59.07463,23.4877 z"
         style="fill:#4b4e53;fill-opacity:1;stroke-width:0.244797" />
      <path
         inkscape:connector-curvature="0"
         id="path14"
         d="m 150.34265,164.56612 c -9.95589,-0.4534 -21.09255,-1.95273 -34.62734,-4.66187 -3.35963,-0.67248 -6.19559,-1.35824 -6.3021,-1.52393 -0.56243,-0.87483 -2.73823,-6.86181 -3.57913,-9.84835 -1.21406,-4.3119 -1.42773,-5.50787 -0.98409,-5.50816 0.18012,-1e-4 1.48418,-0.1067 2.89789,-0.23686 7.11089,-0.65474 24.04842,-1.72454 34.88364,-2.20332 10.08065,-0.44543 28.77032,-0.79705 33.78205,-0.63556 15.00491,0.4835 27.79982,2.41201 45.65475,6.88126 5.78187,1.44727 20.32791,5.43586 20.52856,5.62904 0.19675,0.18942 -3.09915,8.13926 -3.65822,8.8238 -0.14503,0.17756 -0.68428,0.20081 -1.62806,0.0702 -4.12617,-0.57105 -11.53279,-0.96834 -18.03663,-0.96745 -10.83504,0.002 -19.4185,0.5246 -32.4565,1.97816 -17.94673,2.00081 -27.82033,2.59718 -36.47482,2.20304 z"
         style="fill:#a95521;fill-opacity:1;stroke-width:0.244797" />
      <path
         inkscape:connector-curvature="0"
         id="path12"
         d="m 242.87612,144.61872 c -3.74719,-0.87254 -24.10588,-4.88292 -29.13092,-5.73838 -25.67175,-4.37039 -49.14136,-5.10013 -102.66828,-3.19228 -4.58317,0.16336 -7.40594,0.17462 -7.55044,0.0301 -0.26905,-0.26906 -0.39327,-10.43339 -0.13074,-10.69848 0.0971,-0.0981 3.12651,-0.26651 6.73193,-0.37427 11.59395,-0.34653 14.47057,-0.56832 31.52466,-2.43067 26.41499,-2.88459 38.68643,-3.81769 53.61065,-4.07648 14.61924,-0.25349 25.37618,0.66177 44.09675,3.75199 l 6.88749,1.13692 0.15044,1.09747 c 0.23527,1.71661 0.17503,7.96105 -0.10677,11.06584 -0.46408,5.11295 -1.32093,9.80735 -1.78267,9.76681 -0.15715,-0.0137 -0.89159,-0.16616 -1.6321,-0.33859 z"
         style="fill:#d68230;fill-opacity:1;stroke-width:0.244797" />
      <path
         inkscape:connector-curvature="0"
         id="path10"
         d="m 103.83111,119.06447 c 0,-1.39375 1.72894,-9.09825 2.63868,-11.75845 l 0.45275,-1.32396 4.51304,-1.20256 c 8.64983,-2.30487 14.27896,-4.3563 28.38077,-10.342814 28.58579,-12.135276 34.08398,-14.218783 43.57395,-16.512061 12.50912,-3.022864 23.9182,-4.049366 35.37326,-3.182618 l 3.42716,0.259318 1.83598,1.759268 c 8.52568,8.169433 14.92118,17.987162 18.52795,28.442197 0.88696,2.57106 2.03018,6.57361 1.91148,6.69231 -0.0574,0.0574 -1.73311,-0.0311 -3.72363,-0.19676 -5.39102,-0.44876 -23.76985,-0.61023 -30.7529,-0.2702 -12.87337,0.62686 -23.20166,1.43179 -53.64942,4.18113 -30.30351,2.73632 -38.32867,3.36077 -48.7759,3.79528 -3.63557,0.1512 -3.73317,0.14231 -3.73317,-0.34008 z"
         style="fill:#4b9461;fill-opacity:1;stroke-width:0.244797" />
      <path
         inkscape:connector-curvature="0"
         id="path4154"
         d="m 113.86782,91.233113 c 0,-0.08844 0.73088,-1.222563 1.62419,-2.520269 12.06251,-17.523173 30.39267,-28.584699 51.37296,-31.001549 3.67019,-0.422792 11.39879,-0.48146 15.09182,-0.114567 5.80416,0.576635 12.32617,2.07238 17.75683,4.072328 3.54224,1.304498 9.74949,4.331626 12.8076,6.245958 l 2.08078,1.302538 -6.73194,0.158176 c -11.95311,0.280859 -23.47987,1.851042 -35.7729,4.873017 -6.30708,1.550456 -9.99395,2.669015 -23.3457,7.082836 -13.98954,4.624663 -21.25433,6.822725 -28.27412,8.554739 -5.38143,1.327775 -6.60952,1.578019 -6.60952,1.346793 z"
         style="fill:#545386;fill-opacity:1;stroke-width:0.244797" />
    </g>
  </g>
</svg>
